<?xml version="1.0" encoding="utf-8" ?><svg xmlns="http://www.w3.org/2000/svg" xmlns:xlink="http://www.w3.org/1999/xlink" viewBox="200 848 1655 352"><path fill="#71111D" d="M410.318 911.411L411.398 911.993C412.818 965.102 410.142 1018.82 411.817 1071.96C411.869 1073.61 413.369 1077.05 414.011 1078.6C414.612 1080.95 416.567 1084.54 418.108 1086.33C420.156 1088.74 423.148 1090.14 426.31 1090.17C434.846 1090.26 439.905 1085.02 445.464 1079.71C445.434 1076.04 445.23 1065.15 446.271 1062.57C454.988 1040.94 491.779 1026.94 511.586 1016.88C514.879 1015.15 518.153 1013.39 521.409 1011.59C521.574 991.618 524.284 976.397 509.931 961.617C508.753 959.342 508.313 959.181 506.524 957.196L506.727 956.057C511.189 955.681 517.838 956.445 523.191 956.169C567.647 967.126 551.562 1025.72 554.173 1059.34C555.12 1071.53 549.454 1097.37 572.672 1085.95C575.747 1084.33 579.259 1078.09 581.034 1074.94L583.494 1075.7C584.394 1077.87 584.381 1076.81 583.749 1078.85C576.85 1090.79 569.522 1101.05 555.352 1105C541.37 1108.9 523.867 1101.99 521.972 1086.25C523.512 1075.29 521.774 1054.27 521.109 1042.66C522.126 1036.06 521.752 1022.59 521.758 1015.41L514.315 1019.37C498.771 1028.79 463.932 1048.79 479.38 1071.9C482.016 1075.93 486.193 1078.7 490.931 1079.55C497.414 1080.7 502.097 1078.34 507.174 1074.67L512.063 1074.26C513.612 1076.67 512.925 1077.5 512.776 1081.04C495.335 1109.02 460.939 1117.04 445.717 1083.27C432.823 1104.78 409.971 1114.17 389.489 1097.33C375.023 1085.44 379.203 1045.67 379.275 1028.13C379.417 1005.66 379.381 983.184 379.167 960.713L359.945 959.119C385.244 948.483 403.166 941.523 410.318 911.411Z"/><path fill="#1A1315" d="M1354.52 912.283C1357.54 919.824 1355.66 934.405 1355.65 942.718C1355.62 959.552 1353.26 1065.76 1357.15 1074.02C1357.33 1074.4 1357.48 1074.78 1357.64 1075.16C1361.3 1099.24 1383.42 1085.78 1394.51 1076.31C1388.15 1088.8 1376.27 1102.82 1362.11 1105.06C1337.54 1108.94 1327.29 1096.05 1323.83 1074.67C1317.5 1096.37 1294.01 1117.09 1271.17 1100.77C1259.92 1092.73 1262.27 1077.1 1261.57 1064.58C1262.93 1062.09 1261.43 1054.2 1261.04 1050.54C1262.36 1041.86 1261.73 1025.92 1262.33 1015.94L1262.19 1011.88C1259.92 992.558 1268.13 973.518 1249.22 960.562C1249.21 959.269 1249.32 958.677 1249.48 957.398C1253.33 956.166 1259.64 957.467 1265.16 957.31C1269.65 958.929 1273.49 961.331 1277.51 962.951C1310.96 976.416 1282.36 1080.02 1301.61 1090.03C1310.34 1090.23 1322.45 1079.42 1322.97 1072.49C1325.59 1037.64 1322.53 994.751 1324.37 960.256C1317.43 960.649 1310.06 960.135 1303.07 959.816C1309.74 956.699 1316.74 955.207 1323.33 951.53C1341.21 941.56 1348.41 931.143 1354.52 912.283Z"/><path fill="#71111D" d="M786.376 918.018C794.328 917.505 807.446 900.828 816.163 896.328C824.182 892.188 829.976 885.303 840.079 883.959L841.029 886.512C827.515 893.754 818.845 900.748 811.306 914.795C781.173 970.941 799.133 1060.05 866.01 1079.66C882.02 1084.36 904.553 1085.47 918.898 1076.39C936.913 1066.22 943.393 1053.13 956.606 1041C951.87 1052.19 948.234 1060.68 941.053 1070.72C895.594 1134.24 798.547 1111.04 773.644 1041.17C765.741 1018.99 761.18 985.11 767.361 961.992C765.423 960.894 766.268 961.193 764.944 960.816L766.75 958.156L765.965 956.947L759.657 956.527C761.046 956.507 768.503 956.497 768.958 955.115C773.521 941.243 778.547 930.342 786.376 918.018Z"/><path fill="#AA1328" d="M291.792 884.848C303.688 884.034 364.682 880.76 371.678 883.422C361.434 886.416 358.419 886.431 350.836 893.86C347.85 905.299 347.89 913.699 347.983 925.486C348.384 976.063 347.363 1026.76 348.623 1077.31C349.069 1095.21 357.61 1098.19 372.079 1103.54C345.34 1103.99 312.855 1104.5 286.337 1103.4C304.636 1098.03 315.041 1091.86 313.432 1070.76C311.241 1042 318.391 911.117 307.874 893.082C306.685 888.081 296.243 886.117 291.792 884.848Z"/><path fill="#1A1315" d="M1612 1012.73C1611.91 1019.39 1612 1024.75 1612.72 1031.4C1615.91 1060.65 1638.48 1082.38 1669.06 1077.29C1685.01 1074.64 1697.41 1064.26 1705.99 1050.92C1708.6 1046.86 1709.97 1042.94 1712.93 1038.86L1713.8 1039.56C1713.64 1043.07 1712.99 1045.52 1711.56 1048.78C1702.25 1069.85 1690.53 1092.67 1667.69 1101.66C1638.02 1113.33 1597.57 1098.61 1586.58 1067.46C1578.6 1044.85 1577.98 1013.02 1588.48 991.007C1596.09 975.018 1609.86 962.796 1626.63 957.131C1630.27 957.258 1636.27 956.592 1638.45 958.094L1637.93 959.724C1618.01 969.304 1615.47 988.725 1612.17 1008.48C1628.07 1008.53 1659.06 1009.49 1673.88 1008.5C1673.9 988.872 1676.54 969.8 1655.94 959.51C1656.17 958.367 1655.95 959.095 1656.99 957.486C1660.6 957.264 1663.74 957.193 1667.36 957.163C1696.44 965.033 1701.21 986.201 1700.96 1012.6C1674.03 1013.67 1639.67 1012.62 1612 1012.73Z"/><path fill="#71111D" d="M581.034 1074.94C582.117 1072.09 583.801 1065.05 583.9 1062.01C584.593 1040.57 584.341 1019.02 584.411 997.548C584.488 974.03 584.609 950.452 584.054 926.947C583.972 923.483 582.945 919.951 581.462 916.823C577.969 909.455 572.273 909.488 564.721 906.977L564.394 905.725C568.958 902.735 574.272 903.329 579.091 901.518C596.607 894.933 605.73 886.278 617.877 873.115C617.734 900.162 617.342 929.538 618.02 956.454C618.621 957.124 621.809 960.525 622.03 961.253L619.169 961.563C616.834 965.129 618.073 989.411 618.049 995.145L617.812 1052.65C617.839 1065.5 615.212 1090.12 628.994 1097.64C632.678 1099.64 638.673 1100.35 641.538 1103.56C637.767 1105.52 592.034 1103.78 584.339 1103.85C584.262 1097.15 584.441 1085.34 583.749 1078.85C584.381 1076.81 584.394 1077.87 583.494 1075.7L581.034 1074.94Z"/><path fill="#2B1417" d="M1094.71 957.2C1097.86 957.249 1103.34 956.681 1105.16 958.394L1104.98 959.716C1086 969.87 1082.5 986.991 1079.5 1006.81C1078.07 1009.57 1078.5 1015.59 1078.7 1018.88C1082.02 1052.95 1091.56 1079.19 1134.2 1078.02C1147.52 1077.65 1161.27 1067.61 1169.47 1057.19L1172.48 1057.63C1172.89 1059.48 1173.05 1060.29 1173.22 1062.17C1155.6 1093.38 1127.86 1115.73 1090.35 1101.48C1074.61 1095.55 1061.98 1083.45 1055.38 1067.99C1038.05 1027.76 1051.86 974.903 1094.71 957.2Z"/><path fill="#1A1315" d="M1428.4 946.872C1430.34 944.593 1432.21 941.587 1434.65 940.815C1435.57 947.178 1435.2 953.182 1435.3 959.58C1435.73 989.166 1434.8 1019.04 1435.44 1048.6C1435.39 1059.18 1434.31 1076.69 1437.97 1086.14C1442.2 1097.06 1450.61 1100.01 1460.34 1104.09C1435.61 1104.62 1399.83 1104.44 1375.45 1103.38C1383.04 1101.24 1387.57 1100.11 1394.63 1096.72C1395.91 1094.88 1397.28 1093.05 1398.27 1091.02C1402.77 1081.78 1403.16 995.603 1399.12 986.662C1396.12 980.021 1388.15 976.872 1381.89 974.099L1383.03 973.03C1393.46 970.692 1400.12 967.614 1409.59 962.708L1410.11 963.148C1415.42 958.548 1417.26 961.222 1420.45 955.875C1422.04 953.328 1425.92 950.614 1428.4 946.872Z"/><path fill="#55121A" d="M939.435 980.822C945.809 979.377 953.712 978.52 960.451 977.101C980.711 972.833 986.769 961.793 1001.13 950.31L1002.07 949.569C1002.27 964.47 1002.01 979.875 1001.95 994.817C1001.53 995.533 1001.11 996.25 1000.69 996.967C1001.43 1022.78 999.486 1048.89 1000.85 1074.66C1001.01 1075.03 1001.16 1075.4 1001.31 1075.77C1003.04 1084.43 1004.23 1087.56 1009.42 1094.69C1020.03 1100.04 1026.92 1100.9 1038.55 1103.55C1028.77 1104.79 1010.14 1104.23 999.628 1104.23C978.037 1104.36 956.446 1104.24 934.859 1103.84C942.7 1101.13 951.161 1101.68 958.232 1096.66C964.17 1092.44 965.715 1085.43 966.879 1078.62C968.863 1067.02 970.542 996.74 964.91 989.539C959.22 982.263 947.832 981.861 939.435 980.822Z"/><path fill="#1A1315" d="M1738.75 959.156L1744.3 959.02L1745.26 960.12L1744.36 961.983C1738.46 965.976 1733.9 970.394 1732.34 977.592C1730.79 984.763 1732.13 993.192 1736.48 999.181C1755.65 1025.61 1827.3 1004.48 1818.43 1069.55C1816.88 1080.91 1811.58 1091.21 1802.04 1097.85C1798.59 1100.25 1794.98 1102.15 1791.08 1103.67C1789.34 1103.05 1789.44 1102.98 1787.85 1101.98L1787.33 1098.61C1790.97 1095.41 1795.26 1089.9 1795.82 1084.69C1800.41 1039.49 1736.57 1058.28 1719.57 1024.53C1704.8 995.211 1712.69 975.314 1738.75 959.156Z"/><path fill="#1A1315" d="M1519.96 1111.51C1519.38 1109.79 1518.77 1108.09 1518.12 1106.4C1507.22 1078.77 1493.21 1050.03 1481.92 1022.11C1473.97 1004.68 1468.1 986.626 1458.68 969.92C1453.43 960.625 1447.4 961.868 1444.55 957.36L1445.94 956.206C1454.73 956.423 1514.39 955.909 1515.91 957.143C1512.81 959.158 1510.02 960.401 1506.58 961.73C1503.7 962.847 1502.19 964.46 1501.05 967.278C1496.15 979.392 1526.48 1044.16 1533.2 1060.2C1535.31 1066.03 1535.8 1064.76 1535.97 1071.33C1534.34 1073.67 1522.75 1105.18 1519.96 1111.51Z"/><path fill="#55121A" d="M618.02 956.454C627.969 956.193 685.764 956.3 692.146 958.576L691.498 959.693C686.926 960.19 678.319 960.491 675.63 964.697C672.973 968.855 674.388 978.471 676.357 982.624C686.775 1004.61 695.16 1028.44 704.857 1050.48C707.022 1051.23 706.072 1051.24 707.665 1050.97C708.179 1058.58 705.012 1060.73 705.468 1067.16C702.896 1074.05 700.478 1079.91 697.511 1086.65C694.882 1089.47 694.418 1090.55 692.895 1094.12L691.362 1095.21L689.313 1094.02C684.05 1081.8 677.522 1067.71 671.928 1055.53C658.821 1027 643.098 983.668 622.03 961.253C621.809 960.525 618.621 957.124 618.02 956.454Z"/><path fill="#AA1328" d="M253.091 900.722C256.316 899.225 257.085 898.111 259.798 898.732L260.696 900.421C257.425 904.038 255.297 906.493 252.885 910.793C246.246 922.545 244.55 936.455 248.17 949.458C250.665 958.365 254.681 965.729 262.884 970.204C276.815 979.163 276.582 957.84 286.019 956.719C306.855 954.242 309.993 978.571 299.34 989.991C268.796 1022.74 227.893 996.282 228.035 956.251C228.122 931.784 236.275 918.102 253.091 900.722Z"/><defs><linearGradient id="gradient_0" gradientUnits="userSpaceOnUse" x1="1271.8129" y1="1036.3237" x2="1192.4275" y2="1087.7473"><stop offset="0" stop-color="#1C1616" stop-opacity="0.90196079"/><stop offset="1" stop-color="#1A1416"/></linearGradient></defs><path fill="url(#gradient_0)" d="M1261.57 1064.58C1256.69 1075.03 1255.08 1079.97 1247.42 1089.46C1233.36 1106.86 1204.43 1112.6 1190.45 1091.45C1164.07 1051.53 1223.68 1032.11 1249.39 1017.83C1253.45 1015.58 1258.69 1014.47 1262.19 1011.88L1262.33 1015.94C1251.71 1021.62 1240.8 1026.77 1231.28 1034.1C1188.87 1066.76 1248.73 1109.76 1261.04 1050.54C1261.43 1054.2 1262.93 1062.09 1261.57 1064.58Z"/><path fill="#AA1328" d="M875.805 878.425C894.382 878.702 904.822 885.606 915.582 886.265C941.129 898.85 946.918 915.814 946.293 942.777C937.785 959.351 919.053 966.248 902.51 956.964C882.924 945.972 901.657 935.176 908.637 924.969C912.034 920.03 913.117 913.859 911.606 908.058C908.922 897.574 898.422 889.433 889.367 884.401C886.419 881.181 880.159 879.678 875.805 878.425Z"/><path fill="#F8F8F5" fill-opacity="0.0078431377" d="M1637.93 959.724C1645.68 958.631 1647.96 958.315 1655.94 959.51C1676.54 969.8 1673.9 988.872 1673.88 1008.5C1659.06 1009.49 1628.07 1008.53 1612.17 1008.48C1615.47 988.725 1618.01 969.304 1637.93 959.724Z"/><path fill="#1A1315" d="M652.904 1171.31C648.52 1173.74 645.939 1175.12 640.929 1175.94C631.681 1177.51 622.194 1175.19 614.723 1169.51C597.474 1156.14 603.576 1130.93 623.971 1128.77C638.945 1127.19 643.188 1153.21 652.173 1162.2L657.727 1162.79L658.615 1164.13C656.781 1166.18 654.254 1168.93 652.904 1171.31Z"/><path fill="#1A1315" d="M1424.73 937.394C1410.72 945.658 1398.11 936.542 1396.34 921.327C1395.52 914.791 1397.48 908.212 1401.74 903.189C1410.03 893.536 1422.66 896.382 1431.27 904.299C1436.48 909.084 1436.16 917.161 1436.12 923.728C1432.55 930.916 1431.35 932.917 1424.73 937.394Z"/><path fill="#55121A" d="M1007.89 980.788C1013.99 968.82 1018.52 961 1031.58 956.025C1054.71 947.212 1071.14 980.552 1046.06 987.125C1040.16 988.673 1026.79 984.272 1020.48 982.505C1016.57 984.437 1014.89 984.987 1011.77 987.91L1009.36 987.717C1007.63 986.041 1008.14 983.984 1007.89 980.788Z"/><path fill="#71111D" d="M476.155 957.125C479.14 957.158 480.326 957.072 483.301 957.774L483.928 960.436C461.298 976.462 492.872 989.455 478.651 1005.98C474.137 1011.22 464.196 1009.26 458.21 1007.01C452.615 1000.63 451.841 998.831 449.454 990.691C451.866 982.501 452.721 979.025 456.739 971.483C461.015 966.345 462.943 964.38 468.499 960.637L476.155 957.125Z"/><path fill="#2B1417" d="M1135.29 957.238C1161.65 967.114 1168.31 985.306 1168.29 1011.35C1161.36 1009.55 1149.63 1012.01 1141.59 1010.09L1141.26 1007.3C1146.1 989.551 1141.56 973.556 1128.02 961.285L1126.17 958.385L1126.62 957.386C1129.51 957.31 1132.4 957.261 1135.29 957.238Z"/><path fill="#1A1315" d="M1216.78 972.373C1217.71 981.817 1223.14 987.295 1223.46 995.866C1223.83 1005.34 1216.74 1011.33 1207.55 1009.68C1202.51 1008.77 1198.08 1005.81 1195.31 1001.52C1191.6 995.832 1190.45 988.849 1192.15 982.275C1194.83 971.975 1203.14 965.614 1211.92 960.676L1215.49 961.537C1217.16 965.349 1216.78 968.14 1216.78 972.373Z"/><path fill="#1A1315" d="M1782.52 956.193C1795.25 960.321 1801.56 962.93 1807.99 974.826C1822.17 1001.01 1790.44 1012.76 1780.49 997.979C1774.23 988.668 1796.3 974.263 1777.5 960.357C1775.58 958.576 1774.39 958.013 1772.19 956.635L1773.2 956.338L1773.98 957.649L1774.27 956.389L1782.52 956.193Z"/><path fill="#1A1315" d="M1718.43 1054.8C1720.32 1059.38 1722.29 1063.92 1724.34 1068.44C1732.83 1086.73 1741.8 1097.34 1761.06 1104.17C1758.16 1107.54 1755.18 1106.74 1750.72 1106.85C1734.91 1102.04 1731.45 1102.55 1717.52 1091.39C1716.3 1079.74 1717.51 1066.54 1718.43 1054.8Z"/><path fill="#1A1315" fill-opacity="0.83137256" d="M1354.52 912.283C1355.14 908.782 1354.39 910.215 1356.53 907.689C1358.51 911.347 1357.46 949.384 1357.39 956.735C1367.85 956.711 1413.48 957.663 1420.45 955.875C1417.26 961.222 1415.42 958.548 1410.11 963.148L1409.59 962.708C1399.58 960.607 1368.3 960.99 1357.46 960.953L1357.64 1075.16C1357.48 1074.78 1357.33 1074.4 1357.15 1074.02C1353.26 1065.76 1355.62 959.552 1355.65 942.718C1355.66 934.405 1357.54 919.824 1354.52 912.283Z"/><path fill="#1A1315" d="M1565.49 972.92C1565.35 972.562 1565.2 972.205 1565.06 971.848C1566.05 967.269 1549.34 957.291 1546.48 957.206L1547.08 957.671C1552.23 954.459 1597.67 955.825 1605.69 957.234C1590.87 961.788 1580.49 966.225 1572.05 980.547C1568.83 981.293 1570.27 981.592 1567.56 980.292C1566.91 977.483 1566.35 975.637 1565.49 972.92Z"/><path fill="#71111D" d="M708.773 957.729C721.951 955.921 744.992 956.856 759.657 956.527L765.965 956.947L766.75 958.156L764.944 960.816C754.58 963.671 751.689 967.06 744.268 974.828C740.238 977.097 739.604 978.747 736.889 982.712C736.211 977.311 736.057 970.762 732.351 967.202C724.627 959.067 718.706 961.521 708.773 957.729Z"/><path fill="#55121A" fill-opacity="0.78823531" d="M410.318 911.411L410.343 907.938L411.79 907.021C414.302 910.399 412.939 949.125 412.847 956.234C422.758 956.231 452.76 955.493 460.145 958.1C449.836 965.621 419.493 956.689 412.671 962.505C412.836 985.6 412.856 1008.7 412.731 1031.79C412.693 1045.74 411.956 1065.17 414.011 1078.6C413.369 1077.05 411.869 1073.61 411.817 1071.96C410.142 1018.82 412.818 965.102 411.398 911.993L410.318 911.411Z"/><path fill="#1A1315" fill-opacity="0.75686276" d="M1565.49 972.92C1566.35 975.637 1566.91 977.483 1567.56 980.292C1570.27 981.592 1568.83 981.293 1572.05 980.547C1559.32 1007.32 1546.83 1043.25 1535.97 1071.33C1535.8 1064.76 1535.31 1066.03 1533.2 1060.2L1535.13 1059.13C1544.3 1039.85 1564.46 992.741 1565.49 972.92Z"/><path fill="#481B21" fill-opacity="0.78039217" d="M732.351 967.202C736.057 970.762 736.211 977.311 736.889 982.712C739.604 978.747 740.238 977.097 744.268 974.828C732.521 994.833 724.327 1021.37 715.3 1043.12C712.49 1049.89 708.895 1061.36 705.468 1067.16C705.012 1060.73 708.179 1058.58 707.665 1050.97C713.951 1025.03 737.939 993.97 732.351 967.202Z"/><path fill="#2B1417" fill-opacity="0.77254903" d="M689.313 1094.02L691.362 1095.21L692.895 1094.12C694.418 1090.55 694.882 1089.47 697.511 1086.65C689.376 1110.9 675.474 1159.76 652.904 1171.31C654.254 1168.93 656.781 1166.18 658.615 1164.13L657.727 1162.79L652.173 1162.2C657.436 1160.61 657.904 1160.48 662.147 1156.94C671.017 1149.53 689.493 1102.75 689.313 1094.02Z"/><path fill="#481B21" fill-opacity="0.84705883" d="M1078.7 1018.88C1078.5 1015.59 1078.07 1009.57 1079.5 1006.81C1085.16 1008.32 1133.82 1008.25 1141.26 1007.3L1141.59 1010.09C1149.63 1012.01 1161.36 1009.55 1168.29 1011.35C1160.52 1016.4 1094.24 1009.53 1080.87 1013.13C1079.86 1013.4 1079.05 1017.48 1078.7 1018.88Z"/><path fill="#9C3640" fill-opacity="0.627451" d="M253.091 900.722C262.657 887.622 296.286 881.128 311.416 881.59C320.127 881.856 368.863 878.713 372.817 882.429L371.678 883.422C364.682 880.76 303.688 884.034 291.792 884.848C296.243 886.117 306.685 888.081 307.874 893.082C283.133 882.55 280.818 890.088 260.696 900.421L259.798 898.732C257.085 898.111 256.316 899.225 253.091 900.722Z"/><path fill="#AA1328" fill-opacity="0.84313726" d="M786.376 918.018C798.211 900.199 830.362 879.981 851.592 878.104C855.355 878.168 859.117 878.309 862.875 878.527C860.842 880.464 860.619 880.105 857.617 881.054C852.263 882.61 846.289 884.629 841.029 886.512L840.079 883.959C829.976 885.303 824.182 892.188 816.163 896.328C807.446 900.828 794.328 917.505 786.376 918.018Z"/><path fill="#481B21" fill-opacity="0.84313726" d="M1001.95 994.817C1003.45 992.764 1006.75 983.717 1007.89 980.788C1008.14 983.984 1007.63 986.041 1009.36 987.717L1011.77 987.91C1000.74 1011.78 1002.09 1030.36 1002.16 1056.03C1002.18 1060.38 1002.25 1072.25 1001.31 1075.77C1001.16 1075.4 1001.01 1075.03 1000.85 1074.66C999.486 1048.89 1001.43 1022.78 1000.69 996.967C1001.11 996.25 1001.53 995.533 1001.95 994.817Z"/><path fill="#F8F8F5" fill-opacity="0.015686275" d="M1424.73 937.394C1431.35 932.917 1432.55 930.916 1436.12 923.728C1436.81 937.114 1438.01 1040.15 1435.44 1048.6C1434.8 1019.04 1435.73 989.166 1435.3 959.58C1435.2 953.182 1435.57 947.178 1434.65 940.815C1432.21 941.587 1430.34 944.593 1428.4 946.872C1428.22 941.023 1429.97 942.708 1429.16 938.537L1424.73 937.394Z"/><path fill="#9C3640" fill-opacity="0.71372551" d="M851.592 878.104C866.059 874.157 904.696 876.316 915.582 886.265C904.822 885.606 894.382 878.702 875.805 878.425C880.159 879.678 886.419 881.181 889.367 884.401C876.193 880.73 871.065 879.993 857.617 881.054C860.619 880.105 860.842 880.464 862.875 878.527C859.117 878.309 855.355 878.168 851.592 878.104Z"/><path fill="#55121A" fill-opacity="0.85490197" d="M507.174 1074.67C517.398 1064.51 518.464 1056.31 521.109 1042.66C521.774 1054.27 523.512 1075.29 521.972 1086.25C520.927 1081.29 521.157 1068.44 521.111 1062.74C518.405 1069.86 516.859 1074.59 512.776 1081.04C512.925 1077.5 513.612 1076.67 512.063 1074.26L507.174 1074.67Z"/><path fill="#F8F8F5" fill-opacity="0.011764706" d="M460.145 958.1C463.495 961.607 463.378 960.581 468.499 960.637C462.943 964.38 461.015 966.345 456.739 971.483L456.505 963.883C447.115 962.01 423.917 965.132 412.671 962.505C419.493 956.689 449.836 965.621 460.145 958.1Z"/><path fill="#71111D" fill-opacity="0.85490197" d="M476.155 957.125C488.883 952.746 510.462 951.54 523.191 956.169C517.838 956.445 511.189 955.681 506.727 956.057L506.524 957.196C508.313 959.181 508.753 959.342 509.931 961.617C499.309 957.666 495.511 957.181 483.928 960.436L483.301 957.774C480.326 957.072 479.14 957.158 476.155 957.125Z"/><path fill="#352E2E" fill-opacity="0.63921571" d="M1738.75 959.156C1749.87 952.657 1770.43 951.976 1782.52 956.193L1774.27 956.389L1773.98 957.649L1773.2 956.338L1772.19 956.635C1774.39 958.013 1775.58 958.576 1777.5 960.357C1762.67 957.198 1758.76 957.493 1744.36 961.983L1745.26 960.12L1744.3 959.02L1738.75 959.156Z"/><path fill="#1A1315" fill-opacity="0.8392157" d="M1761.06 1104.17C1773.5 1104.29 1776.79 1104.28 1787.33 1098.61L1787.85 1101.98C1789.44 1102.98 1789.34 1103.05 1791.08 1103.67C1779.83 1108.51 1762.38 1110.61 1750.72 1106.85C1755.18 1106.74 1758.16 1107.54 1761.06 1104.17Z"/><path fill="#1A1315" fill-opacity="0.80392158" d="M1219.92 956.837C1234.68 952.273 1250.5 952.438 1265.16 957.31C1259.64 957.467 1253.33 956.166 1249.48 957.398C1249.32 958.677 1249.21 959.269 1249.22 960.562C1239.24 957.301 1237.03 957.368 1226.67 958.857C1224.22 957.258 1222.96 957.407 1219.92 956.837Z"/><path fill="#2B1417" fill-opacity="0.81176472" d="M1094.71 957.2C1108.76 953.119 1121.25 952.747 1135.29 957.238C1132.4 957.261 1129.51 957.31 1126.62 957.386L1126.17 958.385L1128.02 961.285C1117.65 957.733 1115.75 958.356 1104.98 959.716L1105.16 958.394C1103.34 956.681 1097.86 957.249 1094.71 957.2Z"/><path fill="#1A1315" fill-opacity="0.78431374" d="M1626.63 957.131C1639.91 953.099 1654.09 953.11 1667.36 957.163C1663.74 957.193 1660.6 957.264 1656.99 957.486C1655.95 959.095 1656.17 958.367 1655.94 959.51C1647.96 958.315 1645.68 958.631 1637.93 959.724L1638.45 958.094C1636.27 956.592 1630.27 957.258 1626.63 957.131Z"/><path fill="#1A1315" fill-opacity="0.74117649" d="M1185.55 1031.02C1183.25 1041.16 1178.83 1053.42 1173.22 1062.17C1173.05 1060.29 1172.89 1059.48 1172.48 1057.63L1169.47 1057.19C1174.71 1048.75 1180.08 1039.15 1185.55 1031.02Z"/><path fill="#1A1315" fill-opacity="0.92156863" d="M1219.92 956.837C1222.96 957.407 1224.22 957.258 1226.67 958.857C1219.85 963.477 1219.22 964.477 1216.78 972.373C1216.78 968.14 1217.16 965.349 1215.49 961.537L1211.92 960.676L1219.92 956.837Z"/></svg>