<?xml version="1.0" encoding="utf-8" ?><svg xmlns="http://www.w3.org/2000/svg" xmlns:xlink="http://www.w3.org/1999/xlink" width="2048" height="2048" viewBox="0 0 2048 2048"><path fill="#96051E" d="M643.484 647.94C657.612 647.154 675.898 647.754 690.413 647.829L773.503 648.125L872.694 647.856C889.251 647.762 905.927 647.552 922.488 647.541C925.624 647.539 927.451 648.063 929.783 650.102C930.643 653.831 930.617 651.942 929.338 655.95C925.658 660.081 901.008 657.574 889.926 660.958C873.08 666.102 864.119 670.961 854.692 686.912C833.229 723.231 840.017 769.084 839.475 809.437C839.369 817.278 840.146 833.864 838.516 840.791C835.243 854.694 828.323 869.969 824.191 884.061C811.671 926.756 802.534 969.529 803.528 1014.26C803.786 1025.91 803.275 1034.96 806.214 1046.53L806.617 1048.09C785.558 1077.35 764.401 1116.62 735.701 1139.71C734.09 1093.37 735.372 1038.55 735.421 991.553C732.444 991.699 729.47 991.911 726.502 992.19C552.335 1008.66 590.939 1192.89 704.145 1177.5C722.145 1174.94 739.005 1167.18 752.65 1155.16C780.126 1131.4 811.573 1070.5 836.637 1038.58C875.945 988.505 926.927 945.953 992.155 936.197C1029.3 930.641 1063.85 940.347 1093.19 963.21C1150.4 1014.06 1153.72 1096.28 1093 1146.26C1090.23 1148.54 1085.86 1151.43 1082.16 1150.88L1081.1 1148.97C1081.22 1141.79 1093.38 1134.84 1098.2 1128.81C1123.12 1097.64 1124.55 1043.49 1092.68 1016.44C1056.36 985.619 1005.46 991.777 967.513 1016.1C923.37 1043.06 892.676 1087.21 865.047 1129.82C855.62 1144.36 845.446 1160.62 834.736 1173.92C798.726 1218.61 747.337 1256.43 688.615 1261.25C661.002 1263.51 622.918 1251.33 602.572 1232.27C529.119 1163.47 563.277 1044.51 648.67 1003.7C681.312 987.916 699.949 985.887 735.527 984.339L735.281 836.325C735.422 805.747 736.266 774.737 734.968 744.685C733.132 702.178 716.617 661.024 668.504 658.624C661.388 658.269 651.482 658.634 645.037 656C643.072 652.827 643.727 652.255 643.484 647.94Z"/><path fill="#96051E" d="M827.859 980.364C835.486 883.113 877.144 787.327 952.358 723.298C1016.21 668.945 1107.01 636.562 1191.22 642.537C1215.6 644.025 1234.92 649.36 1257.98 657.287C1294.7 669.909 1343.99 715.261 1382.22 686.419C1393.41 677.97 1399.37 660.348 1403.14 647.542C1403.79 645.33 1405.79 645.081 1407.6 644.664L1410.11 645.724C1413.01 653.287 1410.11 695.839 1410.02 707.014L1408.03 914.925C1405.93 918.429 1403.89 917.299 1400.35 916.343C1396.41 912.607 1395.24 891.468 1394.34 884.33C1392.86 872.855 1390.73 861.473 1387.95 850.24C1363.51 747.477 1289.86 649.706 1175.17 655.88C1117.03 659.009 1069.55 679.441 1029.7 722.968C974.525 783.104 959.414 852.158 954.613 929.864C911.988 939.415 878.582 963.346 849.38 995.523C845.513 999.785 836.348 1010.46 833.779 1015.24C831.273 1018.1 831.748 1018.62 828.921 1018.95C825.764 1014.85 827.681 987.603 827.859 980.364Z"/><path fill="#96051E" d="M946.257 1059.56C948.048 1061.4 948.446 1062.19 948.624 1065.05C950.754 1099.48 956.677 1133.36 965.195 1166.78C1000.55 1305.46 1115.63 1413.01 1266.71 1373.47C1321.45 1358.56 1367.68 1321.85 1394.6 1271.91C1401.39 1259.32 1407.38 1239.8 1412.77 1230.55C1415.54 1228.89 1415.32 1228.79 1418.51 1228.89C1427.49 1237.1 1390.59 1297.65 1383.84 1306.77C1283.23 1440.82 1063.4 1429.4 947.929 1322.73C900.026 1278.48 874.801 1236.23 855.029 1174.99C865.644 1165.25 871.742 1155.02 880.345 1144.23C897.688 1122.48 926.469 1077.71 946.257 1059.56Z"/><path fill="#96051E" d="M837.081 1202.77C837.698 1203.14 839.161 1204.63 839.218 1205.26C844.628 1264.64 817.044 1377.98 903.501 1387.84C910.004 1388.59 921.482 1388.06 926.725 1390.71C929.31 1394.26 929.036 1392.48 928.482 1396.07C923.502 1400.48 872.532 1399.13 862.703 1399.2C820.106 1399.66 777.506 1399.73 734.908 1399.43C719.126 1399.06 654.255 1400.91 645.031 1398.32C643.032 1395.45 643.681 1397.07 643.615 1393.1C655.141 1376.19 738.21 1418.99 734.411 1271.33C779.6 1251.63 801.386 1235.1 837.081 1202.77Z"/><path fill="#FEFDFD" fill-opacity="0.011764706" d="M833.779 1015.24C833.493 1021.45 832.568 1030.09 825.724 1032.78L824.513 1031.12C822.096 1019.11 824.108 992.885 827.859 980.364C827.681 987.603 825.764 1014.85 828.921 1018.95C831.748 1018.62 831.273 1018.1 833.779 1015.24Z"/></svg>